<svg width="50" height="50" viewBox="0 0 50 50" fill="none" xmlns="http://www.w3.org/2000/svg">
<g clip-path="url(#clip0_993_546)">
<path d="M37.1076 25C37.1095 27.8497 36.1056 30.6086 34.2729 32.7907C32.4402 34.9728 29.8961 36.4381 27.0889 36.9285C24.2818 37.4189 21.3916 36.9028 18.9276 35.4713C16.4637 34.0397 14.5839 31.7845 13.6196 29.103L6.69336 34.6439C8.84703 38.7379 12.3103 41.9922 16.5303 43.8872C20.7502 45.7823 25.4834 46.2087 29.9741 45.0985C34.4648 43.9882 38.4541 41.4054 41.3048 37.7623C44.1556 34.1191 45.7035 29.6259 45.7013 25" fill="#00AC47"/>
<path d="M37.108 25C37.1064 26.9266 36.6445 28.8249 35.7607 30.5368C34.877 32.2487 33.597 33.7246 32.0273 34.8417L38.8748 40.3197C41.022 38.3865 42.7392 36.0239 43.9152 33.3849C45.0913 30.7458 45.6999 27.8892 45.7017 25" fill="#4285F4"/>
<path d="M12.8906 24.9994C12.8936 23.5996 13.1409 22.2111 13.6214 20.8964L6.69516 15.3555C5.12029 18.3261 4.29688 21.6371 4.29688 24.9994C4.29687 28.3616 5.12029 31.6727 6.69516 34.6433L13.6214 29.1023C13.1409 27.7876 12.8936 26.3991 12.8906 24.9994Z" fill="#FFBA00"/>
<path d="M24.9982 12.8906C27.5605 12.8914 30.0556 13.7102 32.1201 15.2278L38.4638 9.30705C36.1089 7.27667 33.3259 5.80433 30.3225 4.99989C27.319 4.19546 24.1726 4.07971 21.1182 4.66127C18.0637 5.24284 15.18 6.5067 12.6823 8.35856C10.1846 10.2104 8.13737 12.6024 6.69336 15.3561L13.6196 20.897C14.4643 18.5554 16.0096 16.5308 18.0455 15.0983C20.0813 13.6658 22.5089 12.895 24.9982 12.8906Z" fill="#EA4435"/>
<path d="M45.7031 23.4375V25L42.1875 30.4688H25.7812V21.875H44.1406C44.555 21.875 44.9525 22.0396 45.2455 22.3326C45.5385 22.6257 45.7031 23.0231 45.7031 23.4375Z" fill="#4285F4"/>
</g>
<defs>
<clipPath id="clip0_993_546">
<rect width="50" height="50" fill="white"/>
</clipPath>
</defs>
</svg>
