<svg width="216" height="67" viewBox="0 0 216 67" fill="none" xmlns="http://www.w3.org/2000/svg">
<path d="M89.4774 31.8109C87.7943 31.8109 86.9528 31.362 86.9528 30.4644V7.78443H80.2624C79.4208 7.78443 79 7.08313 79 5.68053V4.37613C79 2.97351 79.4208 2.27221 80.2624 2.27221H100.165C101.007 2.27221 101.428 2.97351 101.428 4.37613V5.68053C101.428 7.08313 101.007 7.78443 100.165 7.78443H93.4749V30.4644C93.4749 31.362 92.6333 31.8109 90.9502 31.8109H89.4774ZM103.932 31.8109C102.249 31.8109 101.407 31.362 101.407 30.4644V17.1257C101.407 15.7231 101.365 14.6431 101.281 13.8857C101.197 13.1283 101.113 12.5672 101.029 12.2026C100.944 11.8098 100.902 11.4732 100.902 11.1927C100.902 10.9402 101.085 10.7298 101.449 10.5615C101.842 10.3932 102.305 10.253 102.838 10.1407C103.399 10.0285 103.932 9.95843 104.437 9.93043C104.97 9.87433 105.363 9.84623 105.615 9.84623C106.064 9.84623 106.387 10.0005 106.583 10.3091C106.807 10.6176 106.962 10.9823 107.046 11.4031C107.13 11.8239 107.214 12.2166 107.298 12.5813C107.747 11.7678 108.322 11.0384 109.023 10.3932C109.725 9.72003 110.678 9.38333 111.885 9.38333C112.923 9.38333 113.582 9.59373 113.862 10.0145C114.143 10.4353 114.283 10.9823 114.283 11.6556C114.283 11.908 114.227 12.3288 114.115 12.9179C114.031 13.4789 113.89 13.9979 113.694 14.4748C113.498 14.9517 113.259 15.1901 112.979 15.1901C112.698 15.1901 112.404 15.134 112.095 15.0218C111.787 14.9096 111.422 14.8535 111.001 14.8535C110.44 14.8535 109.935 14.9797 109.486 15.2322C109.037 15.4566 108.659 15.7371 108.35 16.0737C108.042 16.3823 107.803 16.6769 107.635 16.9574V30.4644C107.635 31.362 106.793 31.8109 105.11 31.8109H103.932ZM121.381 32.0633C119.109 32.0633 117.496 31.4743 116.542 30.2961C115.616 29.0898 115.153 27.6311 115.153 25.92C115.153 25.0504 115.28 24.1667 115.532 23.2691C115.813 22.3433 116.36 21.4878 117.173 20.7023C117.987 19.9169 119.193 19.2857 120.792 18.8088C122.419 18.3319 124.565 18.0935 127.23 18.0935V16.7049C127.23 15.8914 126.963 15.2883 126.43 14.8956C125.925 14.5028 125.098 14.3065 123.948 14.3065C122.938 14.3065 122.054 14.4187 121.297 14.6431C120.567 14.8675 119.964 15.0919 119.487 15.3163C119.038 15.5407 118.73 15.653 118.562 15.653C118.281 15.653 117.958 15.4426 117.594 15.0218C117.257 14.573 116.963 14.082 116.71 13.5491C116.486 12.988 116.374 12.5672 116.374 12.2867C116.374 11.8098 116.71 11.347 117.383 10.8982C118.085 10.4493 119.038 10.0846 120.245 9.80413C121.479 9.52363 122.868 9.38333 124.41 9.38333C126.627 9.38333 128.394 9.69193 129.712 10.3091C131.031 10.8982 131.984 11.7257 132.574 12.7917C133.163 13.8296 133.457 15.0358 133.457 16.4104V24.321C133.457 25.7797 133.499 26.9018 133.583 27.6872C133.668 28.4446 133.752 29.0197 133.836 29.4124C133.92 29.7771 133.962 30.1137 133.962 30.4223C133.962 30.6748 133.766 30.8852 133.373 31.0535C133.008 31.2218 132.546 31.362 131.984 31.4743C131.451 31.5865 130.918 31.6706 130.386 31.7267C129.881 31.7548 129.502 31.7688 129.249 31.7688C128.801 31.7688 128.464 31.6145 128.24 31.3059C128.043 30.9693 127.903 30.5766 127.819 30.1278C127.735 29.6509 127.65 29.2301 127.566 28.8654C127.482 29.0337 127.188 29.3844 126.683 29.9174C126.206 30.4223 125.518 30.9132 124.621 31.3901C123.751 31.8389 122.671 32.0633 121.381 32.0633ZM123.443 27.1402C124.256 27.1402 125 26.8878 125.673 26.3828C126.374 25.8779 126.893 25.2467 127.23 24.4893V22.175C126.22 22.175 125.35 22.2452 124.621 22.3854C123.891 22.5257 123.274 22.722 122.769 22.9745C122.293 23.227 121.928 23.5496 121.675 23.9423C121.451 24.335 121.339 24.7839 121.339 25.2888C121.339 25.8218 121.507 26.2706 121.844 26.6353C122.208 26.9719 122.741 27.1402 123.443 27.1402ZM145.951 32.0633C144.436 32.0633 143.09 31.6285 141.912 30.7589C140.733 29.8893 139.794 28.613 139.092 26.9298C138.419 25.2187 138.082 23.1428 138.082 20.7023C138.082 17.28 138.854 14.5449 140.397 12.4971C141.94 10.4213 144.128 9.38333 146.961 9.38333C147.943 9.38333 148.784 9.52363 149.486 9.80413C150.215 10.0846 150.804 10.3792 151.253 10.6878V1.34649C151.253 0.44883 152.094 0 153.778 0H154.956C156.639 0 157.48 0.44883 157.48 1.34649V24.321C157.48 25.7797 157.522 26.9018 157.607 27.6872C157.691 28.4446 157.775 29.0197 157.859 29.4124C157.943 29.7771 157.985 30.1137 157.985 30.4223C157.985 30.6748 157.789 30.8852 157.396 31.0535C157.032 31.2218 156.569 31.362 156.008 31.4743C155.475 31.5865 154.942 31.6706 154.409 31.7267C153.904 31.7548 153.525 31.7688 153.273 31.7688C152.824 31.7688 152.487 31.6145 152.263 31.3059C152.066 30.9693 151.926 30.5766 151.842 30.1278C151.758 29.6789 151.674 29.2722 151.589 28.9075C151.113 29.8052 150.383 30.5626 149.401 31.1797C148.42 31.7688 147.269 32.0633 145.951 32.0633ZM147.802 26.9719C148.616 26.9719 149.303 26.7195 149.864 26.2145C150.425 25.7096 150.888 25.1345 151.253 24.4893V15.1059C150.916 14.9096 150.495 14.7272 149.991 14.5589C149.514 14.3906 148.953 14.3065 148.307 14.3065C146.989 14.3065 146.007 14.8535 145.362 15.9475C144.717 17.0135 144.394 18.5984 144.394 20.7023C144.394 22.7501 144.675 24.307 145.236 25.373C145.797 26.4389 146.652 26.9719 147.802 26.9719ZM172.857 32.0633C169.042 32.0633 166.251 31.0535 164.483 29.0337C162.744 26.9859 161.875 24.2649 161.875 20.8706C161.875 18.0935 162.309 15.8633 163.179 14.1802C164.049 12.4971 165.255 11.2769 166.798 10.5195C168.341 9.76203 170.108 9.38333 172.1 9.38333C174.316 9.38333 176.083 9.88833 177.401 10.8982C178.72 11.88 179.674 13.1984 180.263 14.8535C180.88 16.4805 181.188 18.2758 181.188 20.2395C181.188 20.4639 181.048 20.7865 180.768 21.2072C180.487 21.6 180.178 21.9506 179.842 22.2592C179.505 22.5678 179.239 22.722 179.042 22.722H168.313C168.453 24.4052 168.944 25.5693 169.785 26.2145C170.655 26.8317 171.777 27.1402 173.151 27.1402C174.049 27.1402 174.835 27.028 175.508 26.8036C176.209 26.5792 176.784 26.3688 177.233 26.1724C177.71 25.948 178.047 25.8358 178.243 25.8358C178.551 25.8358 178.874 26.0462 179.211 26.467C179.547 26.8878 179.828 27.3506 180.052 27.8556C180.305 28.3605 180.431 28.7532 180.431 29.0337C180.431 29.5667 180.15 30.0296 179.589 30.4223C179.056 30.787 178.369 31.0956 177.528 31.348C176.714 31.6005 175.873 31.7828 175.003 31.895C174.161 32.0072 173.446 32.0633 172.857 32.0633ZM168.313 18.5563H175.129C175.129 17.322 174.891 16.3122 174.414 15.5267C173.937 14.7132 173.166 14.3065 172.1 14.3065C171.23 14.3065 170.444 14.615 169.743 15.2322C169.042 15.8213 168.565 16.9293 168.313 18.5563ZM89.4774 64.8109C87.7943 64.8109 86.9528 64.362 86.9528 63.4644V40.7844H80.2624C79.4208 40.7844 79 40.0831 79 38.6805V37.3761C79 35.9735 79.4208 35.2722 80.2624 35.2722H100.165C101.007 35.2722 101.428 35.9735 101.428 37.3761V38.6805C101.428 40.0831 101.007 40.7844 100.165 40.7844H93.4749V63.4644C93.4749 64.362 92.6333 64.8109 90.9502 64.8109H89.4774ZM103.932 64.8109C102.249 64.8109 101.407 64.362 101.407 63.4644V50.1257C101.407 48.7231 101.365 47.6431 101.281 46.8857C101.197 46.1283 101.113 45.5672 101.029 45.2026C100.944 44.8098 100.902 44.4732 100.902 44.1927C100.902 43.9402 101.085 43.7298 101.449 43.5615C101.842 43.3932 102.305 43.253 102.838 43.1407C103.399 43.0285 103.932 42.9584 104.437 42.9304C104.97 42.8743 105.363 42.8462 105.615 42.8462C106.064 42.8462 106.387 43.0005 106.583 43.3091C106.807 43.6176 106.962 43.9823 107.046 44.4031C107.13 44.8239 107.214 45.2166 107.298 45.5813C107.747 44.7678 108.322 44.0384 109.023 43.3932C109.725 42.72 110.678 42.3833 111.885 42.3833C112.923 42.3833 113.582 42.5937 113.862 43.0145C114.143 43.4353 114.283 43.9823 114.283 44.6556C114.283 44.908 114.227 45.3288 114.115 45.9179C114.031 46.4789 113.89 46.9979 113.694 47.4748C113.498 47.9517 113.259 48.1901 112.979 48.1901C112.698 48.1901 112.404 48.134 112.095 48.0218C111.787 47.9096 111.422 47.8535 111.001 47.8535C110.44 47.8535 109.935 47.9797 109.486 48.2322C109.037 48.4566 108.659 48.7371 108.35 49.0737C108.042 49.3823 107.803 49.6769 107.635 49.9574V63.4644C107.635 64.362 106.793 64.8109 105.11 64.8109H103.932ZM121.381 65.0633C119.109 65.0633 117.496 64.4743 116.542 63.2961C115.616 62.0898 115.153 60.6311 115.153 58.92C115.153 58.0504 115.28 57.1667 115.532 56.2691C115.813 55.3433 116.36 54.4878 117.173 53.7023C117.987 52.9169 119.193 52.2857 120.792 51.8088C122.419 51.3319 124.565 51.0935 127.23 51.0935V49.7049C127.23 48.8914 126.963 48.2883 126.43 47.8956C125.925 47.5028 125.098 47.3065 123.948 47.3065C122.938 47.3065 122.054 47.4187 121.297 47.6431C120.567 47.8675 119.964 48.0919 119.487 48.3163C119.038 48.5407 118.73 48.653 118.562 48.653C118.281 48.653 117.958 48.4426 117.594 48.0218C117.257 47.573 116.963 47.082 116.71 46.5491C116.486 45.988 116.374 45.5672 116.374 45.2867C116.374 44.8098 116.71 44.347 117.383 43.8982C118.085 43.4493 119.038 43.0846 120.245 42.8041C121.479 42.5236 122.868 42.3833 124.41 42.3833C126.627 42.3833 128.394 42.6919 129.712 43.3091C131.031 43.8982 131.984 44.7257 132.574 45.7917C133.163 46.8296 133.457 48.0358 133.457 49.4104V57.321C133.457 58.7797 133.499 59.9018 133.583 60.6872C133.668 61.4446 133.752 62.0197 133.836 62.4124C133.92 62.7771 133.962 63.1137 133.962 63.4223C133.962 63.6748 133.766 63.8852 133.373 64.0535C133.008 64.2218 132.546 64.362 131.984 64.4743C131.451 64.5865 130.918 64.6706 130.386 64.7267C129.881 64.7548 129.502 64.7688 129.249 64.7688C128.801 64.7688 128.464 64.6145 128.24 64.3059C128.043 63.9693 127.903 63.5766 127.819 63.1278C127.735 62.6509 127.65 62.2301 127.566 61.8654C127.482 62.0337 127.188 62.3844 126.683 62.9174C126.206 63.4223 125.518 63.9132 124.621 64.3901C123.751 64.8389 122.671 65.0633 121.381 65.0633ZM123.443 60.1402C124.256 60.1402 125 59.8878 125.673 59.3828C126.374 58.8779 126.893 58.2467 127.23 57.4893V55.175C126.22 55.175 125.35 55.2452 124.621 55.3854C123.891 55.5257 123.274 55.722 122.769 55.9745C122.293 56.227 121.928 56.5496 121.675 56.9423C121.451 57.335 121.339 57.7839 121.339 58.2888C121.339 58.8218 121.507 59.2706 121.844 59.6353C122.208 59.9719 122.741 60.1402 123.443 60.1402ZM148.686 65.0633C145.095 65.0633 142.431 64.1376 140.691 62.2862C138.952 60.4348 138.082 57.6296 138.082 53.8706C138.082 51.9911 138.293 50.3361 138.714 48.9054C139.134 47.4748 139.78 46.2826 140.649 45.3288C141.547 44.347 142.669 43.6176 144.015 43.1407C145.39 42.6358 147.017 42.3833 148.897 42.3833C149.906 42.3833 150.944 42.4956 152.01 42.72C153.104 42.9163 154.016 43.2389 154.745 43.6878C155.503 44.1085 155.881 44.6415 155.881 45.2867C155.881 45.5392 155.741 45.9319 155.461 46.4649C155.208 46.9698 154.9 47.4467 154.535 47.8956C154.198 48.3163 153.904 48.5267 153.651 48.5267C153.567 48.5267 153.455 48.4987 153.315 48.4426C153.202 48.3865 153.062 48.3163 152.894 48.2322C152.529 48.0358 152.052 47.8395 151.463 47.6431C150.874 47.4187 150.131 47.3065 149.233 47.3065C147.55 47.3065 146.33 47.8394 145.572 48.9054C144.843 49.9433 144.478 51.5423 144.478 53.7023C144.478 55.8623 144.829 57.4753 145.53 58.5413C146.232 59.6072 147.382 60.1402 148.981 60.1402C149.962 60.1402 150.79 60.028 151.463 59.8036C152.137 59.5511 152.684 59.3408 153.104 59.1724C153.273 59.1163 153.413 59.0602 153.525 59.0041C153.665 58.948 153.778 58.92 153.862 58.92C154.17 58.92 154.493 59.1304 154.829 59.5511C155.166 59.9719 155.447 60.4348 155.671 60.9397C155.924 61.4446 156.05 61.8374 156.05 62.1179C156.05 62.707 155.741 63.1979 155.124 63.5906C154.507 63.9553 153.764 64.2498 152.894 64.4743C152.024 64.6987 151.183 64.853 150.369 64.9371C149.584 65.0213 149.023 65.0633 148.686 65.0633ZM162.04 64.8109C160.356 64.8109 159.515 64.362 159.515 63.4644V34.3465C159.515 33.4488 160.356 33 162.04 33H163.218C164.901 33 165.742 33.4488 165.742 34.3465V51.0093L165.911 51.0514L171.002 43.4353C171.255 43.0706 171.591 42.8462 172.012 42.762C172.433 42.6779 172.952 42.6358 173.569 42.6358H175.126C176.697 42.6358 177.482 42.8462 177.482 43.267C177.482 43.4914 177.356 43.7719 177.104 44.1085L169.866 54.4597L169.95 50.3782L178.113 63.2961C178.338 63.6608 178.45 63.9553 178.45 64.1797C178.45 64.6005 177.651 64.8109 176.052 64.8109H174.284C173.667 64.8109 173.134 64.7548 172.685 64.6426C172.265 64.5304 171.956 64.32 171.76 64.0114L165.911 54.3335L165.742 54.3756V63.4644C165.742 64.362 164.901 64.8109 163.218 64.8109H162.04ZM190.157 65.0633C186.341 65.0633 183.55 64.0535 181.783 62.0337C180.044 59.9859 179.174 57.2649 179.174 53.8706C179.174 51.0935 179.609 48.8633 180.479 47.1802C181.348 45.4971 182.554 44.2769 184.097 43.5195C185.64 42.762 187.407 42.3833 189.399 42.3833C191.615 42.3833 193.383 42.8883 194.701 43.8982C196.019 44.88 196.973 46.1984 197.562 47.8535C198.179 49.4805 198.488 51.2758 198.488 53.2395C198.488 53.4639 198.348 53.7865 198.067 54.2072C197.787 54.6 197.478 54.9506 197.141 55.2592C196.805 55.5678 196.538 55.722 196.342 55.722H185.612C185.752 57.4052 186.243 58.5693 187.085 59.2145C187.954 59.8317 189.077 60.1402 190.451 60.1402C191.349 60.1402 192.134 60.028 192.807 59.8036C193.509 59.5792 194.084 59.3688 194.533 59.1724C195.01 58.948 195.346 58.8358 195.543 58.8358C195.851 58.8358 196.174 59.0462 196.51 59.467C196.847 59.8878 197.127 60.3506 197.352 60.8556C197.604 61.3605 197.731 61.7532 197.731 62.0337C197.731 62.5667 197.45 63.0296 196.889 63.4223C196.356 63.787 195.669 64.0956 194.827 64.348C194.014 64.6005 193.172 64.7828 192.303 64.895C191.461 65.0072 190.746 65.0633 190.157 65.0633ZM185.612 51.5563H192.429C192.429 50.322 192.19 49.3122 191.713 48.5267C191.237 47.7132 190.465 47.3065 189.399 47.3065C188.53 47.3065 187.744 47.615 187.043 48.2322C186.341 48.8213 185.865 49.9293 185.612 51.5563ZM205.223 64.8109C203.54 64.8109 202.698 64.362 202.698 63.4644V50.1257C202.698 48.7231 202.656 47.6431 202.572 46.8857C202.488 46.1283 202.404 45.5672 202.32 45.2026C202.236 44.8098 202.193 44.4732 202.193 44.1927C202.193 43.9402 202.376 43.7298 202.74 43.5615C203.133 43.3932 203.596 43.253 204.129 43.1407C204.69 43.0285 205.223 42.9584 205.728 42.9304C206.261 42.8743 206.654 42.8462 206.906 42.8462C207.355 42.8462 207.678 43.0005 207.874 43.3091C208.098 43.6176 208.253 43.9823 208.337 44.4031C208.421 44.8239 208.505 45.2166 208.589 45.5813C209.038 44.7678 209.613 44.0384 210.314 43.3932C211.016 42.72 211.97 42.3833 213.176 42.3833C214.214 42.3833 214.873 42.5937 215.153 43.0145C215.434 43.4353 215.574 43.9823 215.574 44.6556C215.574 44.908 215.518 45.3288 215.406 45.9179C215.322 46.4789 215.182 46.9979 214.985 47.4748C214.789 47.9517 214.55 48.1901 214.27 48.1901C213.989 48.1901 213.695 48.134 213.386 48.0218C213.078 47.9096 212.713 47.8535 212.292 47.8535C211.731 47.8535 211.226 47.9797 210.777 48.2322C210.329 48.4566 209.95 48.7371 209.641 49.0737C209.333 49.3823 209.094 49.6769 208.926 49.9574V63.4644C208.926 64.362 208.084 64.8109 206.401 64.8109H205.223Z" fill="white"/>
<path d="M33.5 2.16211e-09C29.1007 -4.99894e-05 24.7445 0.866819 20.68 2.55111C16.6156 4.2354 12.9226 6.70413 9.81181 9.81634C6.70104 12.9285 4.23345 16.6233 2.54993 20.6896C0.866419 24.7559 -4.99664e-05 29.1141 2.16111e-09 33.5154C0.00710121 38.3093 1.04206 43.0459 3.03502 47.4054C5.02799 51.765 7.93257 55.6461 11.5527 58.7867V45.0716H15.5947V40.4503H17.9053V45.0716H21.9473V64.8661C25.4599 66.1873 29.1694 66.9086 32.9209 67V62.4077H28.8789V24.269H32.9209V19.6477H35.2315V24.269H39.2754V62.4077H35.2315V66.9807C43.8041 66.5369 51.8793 62.8177 57.7908 56.5905C63.7022 50.3634 66.9987 42.1035 67 33.5154C66.9993 28.7141 65.9674 23.9689 63.9742 19.6012C61.981 15.2336 59.0731 11.3453 55.4473 8.19975V32.3606H51.4053V36.9819H49.0947V32.3606H45.0508V2.0567C41.3514 0.696682 37.4412 0.000441345 33.5 2.16211e-09Z" fill="white"/>
</svg>
