<svg width="46" height="46" viewBox="0 0 46 46" fill="none" xmlns="http://www.w3.org/2000/svg">
<circle cx="23" cy="23" r="23" fill="#D5FDF5"/>
<path d="M23.5921 31.9576C28.3822 31.9576 32.2653 28.0745 32.2653 23.2845C32.2653 18.4944 28.3822 14.6113 23.5921 14.6113C18.8021 14.6113 14.9189 18.4944 14.9189 23.2845C14.9189 28.0745 18.8021 31.9576 23.5921 31.9576Z" fill="url(#paint0_linear_608_159)"/>
<path d="M22.4793 22.8834L19.5599 19.9604C19.4929 19.8921 19.4128 19.838 19.3244 19.8014C19.236 19.7648 19.1412 19.7465 19.0455 19.7476C18.9511 19.7475 18.8575 19.7663 18.7704 19.8028C18.6833 19.8394 18.6044 19.8929 18.5383 19.9604L14.6859 23.8057C14.6172 23.8718 14.5626 23.9512 14.5253 24.039C14.488 24.1267 14.4688 24.2211 14.4688 24.3165C14.4688 24.4119 14.488 24.5062 14.5253 24.594C14.5626 24.6818 14.6172 24.7611 14.6859 24.8273C14.7521 24.897 14.8319 24.9526 14.9203 24.9906C15.0088 25.0285 15.104 25.0481 15.2002 25.0481C15.2965 25.0481 15.3917 25.0285 15.4801 24.9906C15.5685 24.9526 15.6483 24.897 15.7146 24.8273L19.0455 21.4964L21.9153 24.3626C22.0419 24.4891 22.2107 24.5644 22.3893 24.5742C22.568 24.584 22.744 24.5276 22.8837 24.4158L30.1947 18.5024L29.9003 21.0104C29.8793 21.2016 29.9345 21.3934 30.0541 21.5442C30.1736 21.695 30.3478 21.7925 30.5388 21.8156H30.6239C30.8004 21.8165 30.9709 21.7516 31.1021 21.6335C31.2333 21.5154 31.3157 21.3527 31.3334 21.1771L31.8194 17.0268C31.8382 16.8353 31.7837 16.6439 31.6668 16.4911C31.6082 16.4168 31.5354 16.3551 31.4525 16.3094C31.3697 16.2637 31.2785 16.235 31.1844 16.2251L27.034 15.7391C26.8424 15.7172 26.6498 15.7721 26.4984 15.8916C26.3789 15.9757 26.2882 16.0947 26.2389 16.2323C26.1895 16.3699 26.1839 16.5194 26.2227 16.6603C26.2615 16.8012 26.3429 16.9267 26.4557 17.0196C26.5686 17.1125 26.7074 17.1683 26.8531 17.1793L29.1731 17.4454L29.0418 17.5553L22.4793 22.8834Z" fill="#164B4C"/>
<path d="M31.8263 28.4941H14.5615V29.9415H31.8263V28.4941Z" fill="#164B4C"/>
<path d="M33.9372 11.5996H12.0149C11.5445 11.5996 11.0933 11.7865 10.7607 12.1191C10.4281 12.4517 10.2412 12.9029 10.2412 13.3733V18.5772H11.7524V13.3733C11.7533 13.3024 11.7821 13.2347 11.8326 13.1849C11.883 13.1351 11.9511 13.1072 12.0219 13.1072H33.9443C34.0152 13.1072 34.0833 13.1351 34.1337 13.1849C34.1842 13.2347 34.213 13.3024 34.2139 13.3733V33.0644C34.2139 33.1359 34.1855 33.2045 34.1349 33.255C34.0844 33.3056 34.0158 33.334 33.9443 33.334H12.0219C11.9504 33.334 11.8819 33.3056 11.8313 33.255C11.7808 33.2045 11.7524 33.1359 11.7524 33.0644V26.4487H10.2412V33.0644C10.2412 33.5348 10.4281 33.9859 10.7607 34.3185C11.0933 34.6512 11.5445 34.838 12.0149 34.838H33.9372C34.4076 34.838 34.8588 34.6512 35.1914 34.3185C35.524 33.9859 35.7109 33.5348 35.7109 33.0644V13.3733C35.7109 12.9029 35.524 12.4517 35.1914 12.1191C34.8588 11.7865 34.4076 11.5996 33.9372 11.5996Z" fill="#164B4C"/>
<path d="M11.9229 21.4072H10.2344V25.1603H11.9229V21.4072Z" fill="#164B4C"/>
<defs>
<linearGradient id="paint0_linear_608_159" x1="23.5921" y1="14.6113" x2="23.5921" y2="31.9576" gradientUnits="userSpaceOnUse">
<stop stop-color="#06BD9A"/>
<stop offset="1" stop-color="white" stop-opacity="0"/>
</linearGradient>
</defs>
</svg>
