<svg width="44" height="44" viewBox="0 0 44 44" fill="none" xmlns="http://www.w3.org/2000/svg">
<circle cx="22" cy="22" r="22" fill="#D5FDF5"/>
<path d="M26.7669 32.8404C31.3229 32.8404 35.0163 29.1471 35.0163 24.5911C35.0163 20.0351 31.3229 16.3418 26.7669 16.3418C22.211 16.3418 18.5176 20.0351 18.5176 24.5911C18.5176 29.1471 22.211 32.8404 26.7669 32.8404Z" fill="url(#paint0_linear_608_146)"/>
<path d="M32.1626 22.3825H21.6367V11.4941H9.4043V34.596H21.6367H32.1626V22.3825ZM11.1259 24.0588H19.9529V32.8933H11.1259V24.0588ZM11.1259 13.1931H19.9529V22.3825H11.1259V13.1931ZM30.4901 24.0588V32.9008H21.6556V24.0588H30.4901Z" fill="#164B4C"/>
<path d="M29.7422 21.0048C28.4877 21.0048 27.2614 20.6328 26.2183 19.9358C25.1753 19.2389 24.3623 18.2483 23.8822 17.0893C23.4022 15.9303 23.2766 14.655 23.5213 13.4247C23.766 12.1943 24.3701 11.0641 25.2572 10.1771C26.1442 9.29003 27.2744 8.68595 28.5047 8.44121C29.7351 8.19648 31.0105 8.32209 32.1694 8.80215C33.3284 9.28222 34.319 10.0952 35.0159 11.1382C35.7129 12.1813 36.0849 13.4076 36.0849 14.6621C36.0829 16.3436 35.414 17.9558 34.225 19.1448C33.0359 20.3339 31.4238 21.0028 29.7422 21.0048ZM29.7422 9.94277C28.8088 9.94277 27.8963 10.2195 27.1203 10.7381C26.3442 11.2567 25.7393 11.9937 25.3821 12.8561C25.0249 13.7184 24.9314 14.6673 25.1135 15.5827C25.2956 16.4982 25.7451 17.3391 26.4051 17.9991C27.0651 18.6591 27.906 19.1086 28.8215 19.2907C29.7369 19.4728 30.6858 19.3793 31.5481 19.0221C32.4105 18.6649 33.1475 18.06 33.6661 17.284C34.1847 16.5079 34.4615 15.5954 34.4615 14.6621C34.4605 13.4107 33.9629 12.2109 33.0781 11.3261C32.1933 10.4413 30.9935 9.94377 29.7422 9.94277Z" fill="#164B4C"/>
<defs>
<linearGradient id="paint0_linear_608_146" x1="26.7669" y1="16.3418" x2="26.7669" y2="32.8404" gradientUnits="userSpaceOnUse">
<stop stop-color="#06BD9A"/>
<stop offset="1" stop-color="white" stop-opacity="0"/>
</linearGradient>
</defs>
</svg>
