<svg width="44" height="44" viewBox="0 0 44 44" fill="none" xmlns="http://www.w3.org/2000/svg">
<circle cx="22" cy="22" r="22" fill="#D5FDF5"/>
<path d="M22.0579 37.5425C27.2524 37.5425 31.4634 33.3315 31.4634 28.137C31.4634 22.9424 27.2524 18.7314 22.0579 18.7314C16.8633 18.7314 12.6523 22.9424 12.6523 28.137C12.6523 33.3315 16.8633 37.5425 22.0579 37.5425Z" fill="url(#paint0_linear_608_157)"/>
<path d="M36.595 15.2611C36.1657 14.8153 35.5944 14.5331 34.9795 14.4632C34.3645 14.3932 33.7445 14.5399 33.226 14.8779C32.7076 15.2159 32.3232 15.724 32.1391 16.3149C31.9549 16.9057 31.9826 17.5423 32.2172 18.115C32.2272 18.1387 32.2283 18.1652 32.2204 18.1897C32.2125 18.2142 32.1961 18.235 32.1742 18.2485L28.003 20.7666C27.9907 20.7743 27.9769 20.7794 27.9625 20.7816C27.9482 20.7838 27.9335 20.7831 27.9194 20.7795C27.9053 20.7758 27.8921 20.7694 27.8806 20.7605C27.8691 20.7517 27.8595 20.7406 27.8524 20.7279C27.013 19.2213 26.165 17.7147 25.3169 16.1822L23.7673 13.3929C23.7551 13.3715 23.7506 13.3466 23.7545 13.3223C23.7584 13.2981 23.7705 13.2759 23.7888 13.2594C24.0639 13.0134 24.2831 12.7113 24.4316 12.3735C24.5801 12.0356 24.6545 11.6699 24.6497 11.3008C24.6514 10.853 24.5403 10.4119 24.3267 10.0182C24.1132 9.62457 23.804 9.291 23.4276 9.04822C23.0513 8.80545 22.6199 8.66127 22.1732 8.62901C21.7265 8.59674 21.2789 8.67741 20.8715 8.86357C20.4642 9.04974 20.1103 9.33543 19.8423 9.69431C19.5744 10.0532 19.4011 10.4737 19.3384 10.9171C19.2756 11.3606 19.3255 11.8127 19.4834 12.2318C19.6413 12.6509 19.9021 13.0235 20.2418 13.3154C20.2602 13.3317 20.2727 13.3536 20.2773 13.3777C20.282 13.4018 20.2786 13.4268 20.2677 13.4488L19.1054 15.5538C18.1713 17.2326 17.2071 18.9673 16.2127 20.7193C16.2056 20.732 16.196 20.7431 16.1845 20.7519C16.173 20.7608 16.1598 20.7672 16.1457 20.7708C16.1316 20.7745 16.1169 20.7752 16.1026 20.773C16.0882 20.7708 16.0744 20.7657 16.0621 20.758L14.9988 20.108L11.779 18.1451C11.7563 18.1324 11.7393 18.1116 11.7314 18.0868C11.7234 18.0621 11.725 18.0353 11.7359 18.0117C11.8863 17.6743 11.964 17.3092 11.9641 16.9398C11.9439 16.2463 11.6535 15.5882 11.155 15.1057C10.6564 14.6232 9.98904 14.3545 9.29524 14.3571H9.20484C8.52702 14.3796 7.88311 14.659 7.40355 15.1386C6.92399 15.6181 6.64464 16.262 6.62208 16.9398C6.62019 17.5382 6.82142 18.1196 7.19284 18.5887C7.56427 19.0579 8.08391 19.3871 8.66677 19.5226C8.68544 19.5274 8.70248 19.5371 8.71611 19.5507C8.72974 19.5644 8.73946 19.5814 8.74425 19.6001L11.7575 29.7503C11.7575 29.8149 11.7962 29.8795 11.8134 29.9483V29.9742C11.9641 30.5252 12.132 31.145 12.8207 31.1536H31.154C32.0149 31.1536 32.1483 30.495 32.2603 30.0129V29.944C32.2603 29.8579 32.3076 29.7589 32.3334 29.6685L35.2821 19.7249C35.2879 19.7073 35.298 19.6913 35.3116 19.6785C35.3251 19.6657 35.3416 19.6565 35.3596 19.6517C35.9199 19.5038 36.4163 19.1761 36.7724 18.7189C37.1286 18.2616 37.3248 17.7002 37.3311 17.1206C37.3416 16.4278 37.0769 15.759 36.595 15.2611ZM22.011 10.4055C22.1903 10.4072 22.365 10.4619 22.5133 10.5627C22.6615 10.6635 22.7766 10.806 22.844 10.9721C22.9114 11.1382 22.9282 11.3205 22.8922 11.4961C22.8561 11.6718 22.769 11.8328 22.6416 11.959C22.5143 12.0851 22.3524 12.1708 22.1765 12.2051C22.0005 12.2395 21.8183 12.221 21.6529 12.152C21.4874 12.083 21.3461 11.9666 21.2466 11.8174C21.1472 11.6683 21.0941 11.493 21.0941 11.3137C21.0975 11.0724 21.1955 10.842 21.3669 10.6722C21.5384 10.5023 21.7697 10.4066 22.011 10.4055ZM9.97967 17.5855L9.86775 17.6931C9.71068 17.8013 9.52471 17.8598 9.33398 17.861C9.09195 17.861 8.85983 17.7649 8.68869 17.5938C8.51755 17.4226 8.4214 17.1905 8.4214 16.9485C8.4214 16.7064 8.51755 16.4743 8.68869 16.3032C8.85983 16.132 9.09195 16.0359 9.33398 16.0359C9.57606 16.037 9.80797 16.1334 9.97956 16.3041C10.1511 16.4749 10.2486 16.7064 10.2509 16.9485C10.25 17.0673 10.2256 17.1848 10.179 17.2941C10.1325 17.4035 10.0647 17.5025 9.97967 17.5855ZM32.4411 23.3365C32.4349 23.3567 32.4229 23.3747 32.4066 23.3881L31.5457 26.3196L30.7493 29.4103C30.7343 29.4637 30.7022 29.5107 30.6578 29.5441C30.6135 29.5776 30.5595 29.5956 30.504 29.5954H13.673C13.627 29.5956 13.5821 29.5812 13.5449 29.554C13.5077 29.5269 13.4802 29.4886 13.4664 29.4447L10.9525 20.8656C10.8965 20.6719 10.8363 20.4782 10.7803 20.2888L10.6081 19.6991C10.6025 19.6784 10.6032 19.6564 10.6101 19.6361C10.617 19.6157 10.6299 19.598 10.647 19.585C10.6642 19.572 10.6848 19.5645 10.7062 19.5633C10.7277 19.5622 10.749 19.5675 10.7674 19.5786L14.4995 21.8299L15.6402 22.5143C15.7954 22.6142 15.9694 22.6814 16.1515 22.7118C16.3336 22.7421 16.5199 22.735 16.6991 22.6908H16.725C16.8943 22.6407 17.0516 22.5564 17.1871 22.4432C17.3226 22.3299 17.4334 22.19 17.5127 22.0322L21.9594 14.0385C21.9687 14.0216 21.9824 14.0074 21.999 13.9976C22.0157 13.9877 22.0347 13.9825 22.0541 13.9826C22.0733 13.983 22.0922 13.9883 22.1088 13.9981C22.1254 14.0079 22.1391 14.0219 22.1488 14.0385L23.169 15.8723C24.2795 17.8567 25.3987 19.8756 26.5007 21.8686C26.587 22.0598 26.7118 22.2311 26.8673 22.3719C27.0229 22.5126 27.2058 22.6197 27.4047 22.6865C27.5047 22.711 27.6073 22.724 27.7103 22.7252C28.0272 22.7112 28.3341 22.6099 28.597 22.4325L33.3321 19.5657C33.3509 19.5543 33.3725 19.5482 33.3945 19.5482C33.4165 19.5482 33.4381 19.5543 33.4569 19.5657C33.4737 19.5793 33.4859 19.5977 33.4921 19.6184C33.4982 19.6392 33.498 19.6613 33.4914 19.6819L32.4411 23.3365ZM34.8387 18.016H34.6924C34.5729 18.0138 34.4552 17.9879 34.3458 17.9399C34.2365 17.8918 34.1377 17.8226 34.0553 17.7362C33.9707 17.6512 33.9048 17.5495 33.8618 17.4376C33.8188 17.3256 33.7997 17.206 33.8056 17.0862C33.8252 16.8566 33.9314 16.643 34.1027 16.4887C34.2739 16.3344 34.4974 16.251 34.7278 16.2554C34.9583 16.2598 35.1785 16.3516 35.3437 16.5122C35.509 16.6729 35.607 16.8904 35.6178 17.1206C35.6143 17.3378 35.5343 17.5467 35.3917 17.7105C35.2491 17.8743 35.0533 17.9825 34.8387 18.016Z" fill="#164B4C"/>
<path d="M24.8428 33.4912H13.4873V35.3164H24.8428V33.4912Z" fill="#164B4C"/>
<path d="M30.6374 33.4912H26.8838V35.3164H30.6374V33.4912Z" fill="#164B4C"/>
<defs>
<linearGradient id="paint0_linear_608_157" x1="22.0579" y1="18.7314" x2="22.0579" y2="37.5425" gradientUnits="userSpaceOnUse">
<stop stop-color="#06BD9A"/>
<stop offset="1" stop-color="white" stop-opacity="0"/>
</linearGradient>
</defs>
</svg>
