<svg width="60" height="61" viewBox="0 0 60 61" fill="none" xmlns="http://www.w3.org/2000/svg">
<path d="M3.66296 35.168L3.72133 35.1096L17.9936 20.3036L23.3154 24.6912L23.1903 24.8496C21.2943 27.2416 20.2652 30.2056 20.2708 33.2579C20.2677 35.572 20.8529 37.849 21.9713 39.8749C23.0897 41.9009 24.7047 43.6093 26.6645 44.8399C28.6244 46.0704 30.8648 46.7828 33.1755 46.9099C35.4861 47.0371 37.7912 46.5749 39.8742 45.5668C41.9573 44.5587 43.7499 43.0377 45.0839 41.1467C46.4178 39.2557 47.2492 37.0566 47.5001 34.7561C47.7511 32.4556 47.4132 30.1291 46.5183 27.995C45.6233 25.8609 44.2007 23.9892 42.3839 22.5557L42.1921 22.4056L51.4761 13.8139L51.059 18.8188L54.5458 19.1107L55.3799 9.64318C55.4025 9.35847 55.3567 9.07249 55.2465 8.80903C55.1111 8.49439 54.8864 8.22631 54.6003 8.03802C54.3141 7.84973 53.9791 7.74949 53.6365 7.74965H53.5281L44.6361 8.31692L44.8613 11.8119L48.8235 11.5618L39.0307 20.6289H38.9056C36.7985 19.7977 34.5162 19.5095 32.2687 19.7908C30.0211 20.0721 27.8803 20.9139 26.043 22.2387L25.9096 22.3388L25.8429 22.2805L17.7517 15.6073L3.69631 30.1882V4.21289H0.18457V56.764H59.9343V53.2356H3.66296V35.168ZM33.9257 23.1063C35.9339 23.1046 37.8974 23.6986 39.5679 24.8131C41.2384 25.9275 42.5408 27.5124 43.3105 29.3673C44.0801 31.2221 44.2823 33.2634 43.8915 35.2331C43.5008 37.2029 42.5346 39.0126 41.1152 40.4331C39.6958 41.8537 37.887 42.8213 35.9176 43.2137C33.9482 43.6061 31.9066 43.4055 30.0512 42.6374C28.1957 41.8693 26.6098 40.5682 25.4939 38.8986C24.3781 37.229 23.7825 35.266 23.7825 33.2579C23.7847 30.5676 24.8538 27.988 26.7553 26.0849C28.6568 24.1819 31.2355 23.1107 33.9257 23.1063Z" fill="white"/>
<circle cx="33.9347" cy="33.3663" r="12.0687" stroke="#164B4C" stroke-width="3.40764"/>
</svg>
