<svg width="45" height="45" viewBox="0 0 45 45" fill="none" xmlns="http://www.w3.org/2000/svg">
<circle cx="22.5" cy="22.5" r="22.5" fill="#D5FDF5"/>
<path d="M18.583 20.0947L22.7512 36.3269L38.5868 20.0947H18.583Z" fill="url(#paint0_linear_608_158)"/>
<path d="M38.4547 20.7648C38.5474 20.6887 38.6213 20.5922 38.6706 20.4828C38.7313 20.3637 38.7659 20.233 38.772 20.0995V20.0246H38.8249H38.772C38.772 20.0246 38.772 19.9849 38.772 19.9629V19.9409C38.772 19.9409 38.772 19.9144 38.772 19.9012C38.7401 19.7186 38.6468 19.5522 38.5076 19.4297L38.4371 19.3769L29.7438 11.5913C29.6669 11.4909 29.5692 11.4082 29.4574 11.3489C29.3567 11.2927 29.2459 11.2567 29.1314 11.2432H28.9992H16.0187C15.8109 11.2478 15.6107 11.3223 15.4503 11.4546L6.58081 19.3857L6.51029 19.4518C6.38441 19.5686 6.29684 19.7207 6.25909 19.8883C6.22134 20.0558 6.23518 20.2308 6.29881 20.3903C6.35555 20.5669 6.46655 20.7211 6.61604 20.8309C8.11853 22.3995 21.0373 35.8382 21.8172 36.6445C21.913 36.753 22.0341 36.8362 22.1697 36.8868H22.2314H22.2666H22.3415H22.3724H22.4825H22.509V36.9397V36.8868C22.7384 36.8832 22.9589 36.7972 23.1302 36.6445L23.2007 36.5696L23.2492 36.5961L23.2095 36.5564L38.4547 20.7648ZM35.7141 21.0424L26.5097 30.5905L31.7574 20.9499H35.8066L35.7141 21.0424ZM35.6216 19.2227H31.9072L30.6823 14.8165L35.6216 19.2227ZM14.362 14.8165L13.1327 19.2227H9.40953L14.362 14.8165ZM17.5521 29.6035L9.33023 21.0556L9.2421 20.9631H13.2869V20.9895L18.5214 30.6301L17.5521 29.6035ZM22.5222 34.23L22.4737 34.1418L14.7894 20.0422C14.7937 20.0085 14.7937 19.9745 14.7894 19.9409V19.8836L16.7061 13.0056H28.3559L30.0875 19.2227H22.4693V20.9499H29.7659L29.7218 21.0292L22.5222 34.23Z" fill="#164B4C"/>
<path d="M20.5179 19.2314H17.9844V20.9586H20.5179V19.2314Z" fill="#164B4C"/>
<defs>
<linearGradient id="paint0_linear_608_158" x1="28.5849" y1="20.0947" x2="28.5849" y2="36.3269" gradientUnits="userSpaceOnUse">
<stop stop-color="#06BD9A"/>
<stop offset="1" stop-color="white" stop-opacity="0"/>
</linearGradient>
</defs>
</svg>
