<svg width="46" height="46" viewBox="0 0 46 46" fill="none" xmlns="http://www.w3.org/2000/svg">
<circle cx="23" cy="23" r="23" fill="#D5FDF5"/>
<path d="M23.2651 32.1651C28.2452 32.1651 32.2822 28.128 32.2822 23.148C32.2822 18.168 28.2452 14.1309 23.2651 14.1309C18.2851 14.1309 14.248 18.168 14.248 23.148C14.248 28.128 18.2851 32.1651 23.2651 32.1651Z" fill="url(#paint0_linear_608_188)"/>
<path d="M20.5245 23.1471C20.5102 23.5156 20.5703 23.8833 20.7014 24.228C20.8326 24.5728 21.0319 24.8875 21.2876 25.1534C21.5433 25.4192 21.85 25.6307 22.1894 25.7752C22.5287 25.9196 22.8938 25.9941 23.2626 25.9941C23.6315 25.9941 23.9965 25.9196 24.3359 25.7752C24.6753 25.6307 24.982 25.4192 25.2376 25.1534C25.4933 24.8875 25.6927 24.5728 25.8238 24.228C25.9549 23.8833 26.0151 23.5156 26.0007 23.1471C26.0015 22.7601 25.9189 22.3774 25.7588 22.0251L35.7268 16.9202C35.8347 16.8704 35.9307 16.7981 36.0084 16.7082C36.0861 16.6183 36.1437 16.5128 36.1773 16.3988C36.214 16.2846 36.2277 16.1643 36.2177 16.0447C36.2077 15.9252 36.1741 15.8088 36.1189 15.7023C35.0113 13.751 33.498 12.06 31.6812 10.7433C29.6209 9.17097 27.0392 8.2409 24.0071 8.01568C23.8833 8.00375 23.7585 8.01883 23.6411 8.05988C23.5237 8.10092 23.4166 8.16695 23.3273 8.25341C23.2349 8.3371 23.1614 8.43955 23.1118 8.55391C23.0621 8.66827 23.0375 8.79191 23.0395 8.91656V20.4194C22.3557 20.4787 21.7187 20.7913 21.2534 21.2959C20.7882 21.8005 20.5282 22.4607 20.5245 23.1471ZM24.8037 20.4987V9.89668C26.8922 10.1331 28.8823 10.9125 30.576 12.1572C31.9323 13.1495 33.1099 14.3652 34.0585 15.7524L24.8037 20.4987ZM23.2605 24.0938C23.0733 24.0938 22.8903 24.0383 22.7346 23.9343C22.5789 23.8302 22.4575 23.6824 22.3858 23.5094C22.3142 23.3364 22.2954 23.146 22.332 22.9624C22.3685 22.7787 22.4587 22.61 22.5911 22.4776C22.7235 22.3452 22.8922 22.255 23.0758 22.2185C23.2595 22.182 23.4499 22.2007 23.6229 22.2724C23.7959 22.344 23.9437 22.4654 24.0477 22.6211C24.1518 22.7768 24.2073 22.9598 24.2073 23.1471C24.2073 23.3982 24.1076 23.639 23.93 23.8165C23.7525 23.9941 23.5116 24.0938 23.2605 24.0938Z" fill="#164B4C"/>
<path d="M22.9894 37.8338C19.2809 37.8329 15.707 36.4438 12.9713 33.94C10.2356 31.4362 8.53628 27.999 8.20779 24.305C7.8793 20.6111 8.94546 16.9279 11.1964 13.9807C13.4474 11.0334 16.72 9.03545 20.3702 8.38017L21.2544 8.22168L21.5672 9.99007L20.6872 10.1444C18.1151 10.6065 15.7412 11.8309 13.8735 13.6587C12.0058 15.4866 10.7305 17.8335 10.2131 20.3951C9.69562 22.9567 9.9599 25.6146 10.9716 28.0241C11.9834 30.4336 13.6959 32.4835 15.8869 33.9078C18.078 35.332 20.6465 36.065 23.2592 36.0116C25.872 35.9581 28.4084 35.1207 30.5394 33.608C32.6704 32.0954 34.2976 29.9772 35.2099 27.5283C36.1223 25.0795 36.2777 22.4129 35.6559 19.8747L35.4432 19.003L37.1824 18.5859L37.3993 19.4576C37.9371 21.6442 37.971 23.9245 37.4983 26.1261C37.0257 28.3277 36.0588 30.3932 34.6709 32.1663C33.283 33.9395 31.5102 35.3741 29.4865 36.3617C27.4629 37.3493 25.2412 37.8641 22.9894 37.8672V37.8338Z" fill="#164B4C"/>
<path d="M23.265 32.411C21.1113 32.4077 19.0279 31.6439 17.3825 30.2543C15.7371 28.8646 14.6354 26.9385 14.2718 24.8157C13.9082 22.6929 14.3061 20.5099 15.3952 18.6519C16.4843 16.7938 18.1947 15.3802 20.2245 14.6604L21.0587 14.3643L21.6551 16.0534L20.8209 16.3537C19.5234 16.8131 18.3813 17.6282 17.5251 18.706C16.6689 19.7837 16.1332 21.0806 15.9791 22.4484C15.8251 23.8162 16.059 25.1998 16.654 26.441C17.2491 27.6822 18.1813 28.7309 19.3442 29.4673C20.5071 30.2038 21.8537 30.5982 23.2302 30.6056C24.6066 30.6129 25.9573 30.2329 27.128 29.5089C28.2987 28.7849 29.2421 27.7462 29.8504 26.5115C30.4587 25.2767 30.7073 23.8957 30.5679 22.5264L30.4762 21.6338L32.2612 21.4503L32.3488 22.3428C32.3822 22.6531 32.399 22.965 32.3989 23.2771C32.3956 25.6985 31.4322 28.0198 29.72 29.7321C28.0077 31.4443 25.6864 32.4077 23.265 32.411Z" fill="#164B4C"/>
<path d="M30.6521 14.1221H28.5V16.2742H30.6521V14.1221Z" fill="#164B4C"/>
<defs>
<linearGradient id="paint0_linear_608_188" x1="23.2651" y1="14.1309" x2="23.2651" y2="32.1651" gradientUnits="userSpaceOnUse">
<stop stop-color="#06BD9A"/>
<stop offset="1" stop-color="white" stop-opacity="0"/>
</linearGradient>
</defs>
</svg>
