<svg width="46" height="46" viewBox="0 0 46 46" fill="none" xmlns="http://www.w3.org/2000/svg">
<circle cx="23" cy="23" r="23" fill="#D5FDF5"/>
<path d="M33.1568 15.3201L28.7537 24.1353L31.6054 25.6905L37.0451 16.3571L33.1568 15.3201Z" fill="url(#paint0_linear_608_160)"/>
<path d="M22.534 22.9697H15.3721V24.6996H22.534V22.9697Z" fill="#06BD9A"/>
<path d="M22.534 19.0938H15.3721V20.8236H22.534V19.0938Z" fill="#06BD9A"/>
<path d="M36.858 10.6693C36.1968 10.3693 35.4472 10.3282 34.7572 10.5543C34.0673 10.7803 33.4873 11.257 33.1319 11.8901L32.8575 12.3674C32.6982 12.3615 32.5403 12.3986 32.4003 12.4749C32.2604 12.5512 32.1435 12.6638 32.0622 12.8008L31.0919 14.4949H11.8371C11.3507 14.5021 10.8867 14.6999 10.5446 15.0457C10.2026 15.3914 10.0098 15.8576 10.0078 16.344V20.8058H11.7615V16.3281C11.761 16.3171 11.7626 16.3061 11.7663 16.2958C11.77 16.2855 11.7757 16.276 11.7831 16.2678C11.7905 16.2597 11.7994 16.2531 11.8094 16.2485C11.8193 16.2438 11.8301 16.2411 11.841 16.2406H30.054L25.8785 23.5139C25.7628 23.7179 25.7314 23.959 25.791 24.1859L26.4989 26.8025L26.5227 26.8303H15.3723V28.5602H27.839V28.5164L27.8748 28.5602H27.8986L31.3146 27.3672C31.5164 27.2965 31.6858 27.1553 31.7917 26.9695L34.0385 23.0486V31.2961C34.0385 31.3193 34.0293 31.3415 34.0129 31.3579C33.9965 31.3743 33.9743 31.3836 33.9511 31.3836H25.5524C25.4029 31.3836 25.256 31.4234 25.1269 31.4989L21.1145 33.7735V32.2664C21.1156 32.1508 21.0937 32.0362 21.0502 31.9291C21.0067 31.8221 20.9425 31.7247 20.8611 31.6426C20.7798 31.5605 20.683 31.4954 20.5763 31.4509C20.4696 31.4065 20.3552 31.3836 20.2397 31.3836H11.8569C11.8456 31.3836 11.8344 31.3813 11.824 31.3769C11.8136 31.3724 11.8042 31.3659 11.7964 31.3577C11.7886 31.3496 11.7826 31.3398 11.7786 31.3292C11.7747 31.3186 11.7729 31.3074 11.7734 31.2961V26.5241H10.0197V31.2961C10.0197 31.7838 10.2124 32.2517 10.5557 32.598C10.899 32.9443 11.3653 33.141 11.853 33.1452H19.3648V35.2767C19.3628 35.432 19.4018 35.5852 19.4779 35.7207C19.554 35.8561 19.6645 35.9691 19.7983 36.0481C19.929 36.1231 20.077 36.1628 20.2277 36.1635C20.3785 36.1634 20.5267 36.1236 20.6572 36.0481L25.7791 33.1452H33.9232C34.1651 33.1464 34.4047 33.0991 34.628 33.0062C34.8514 32.9133 35.0539 32.7767 35.2236 32.6044C35.3947 32.4324 35.5302 32.2282 35.6223 32.0037C35.7144 31.7792 35.7614 31.5387 35.7604 31.2961V20.0104L37.9237 16.2287C38.001 16.0877 38.0381 15.9283 38.0311 15.7678C38.0241 15.6072 37.9732 15.4516 37.8839 15.318L38.4089 14.3238V14.3C38.6473 13.6103 38.6206 12.8565 38.3339 12.1854C38.0472 11.5143 37.5211 10.9739 36.858 10.6693ZM28.2406 26.5758L28.0418 25.8322L28.9167 26.3412L28.2406 26.5758ZM34.0902 19.4179V19.4617L30.6942 25.3471L27.839 23.6888L33.1358 14.4631L35.9871 16.1213L34.0902 19.4179ZM36.6432 13.97L36.4166 14.3676L34.4044 13.1985L34.6271 12.8008C34.7269 12.6192 34.8737 12.4678 35.0521 12.3623C35.2305 12.2568 35.4339 12.2011 35.6411 12.2011C35.8484 12.2011 36.0518 12.2568 36.2302 12.3623C36.4085 12.4678 36.5553 12.6192 36.6552 12.8008C36.7487 12.9769 36.7966 13.1736 36.7945 13.373C36.7925 13.5724 36.7404 13.768 36.6432 13.9421V13.97Z" fill="#164B4C"/>
<path d="M11.7732 21.9561H10.0195V24.346H11.7732V21.9561Z" fill="#06BD9A"/>
<defs>
<linearGradient id="paint0_linear_608_160" x1="36.4397" y1="18.0622" x2="33.2541" y2="32.8718" gradientUnits="userSpaceOnUse">
<stop stop-color="#06BD9A"/>
<stop offset="1" stop-color="white" stop-opacity="0"/>
</linearGradient>
</defs>
</svg>
