<svg width="31" height="31" viewBox="0 0 31 31" fill="none" xmlns="http://www.w3.org/2000/svg">
<path d="M27.3407 0.977271C28.1198 0.197681 29.3838 0.197681 30.1628 0.977271C30.9418 1.75626 30.9418 3.01965 30.1628 3.79924L18.5697 15.3925L30.1628 26.9858C30.9418 27.7648 30.9418 29.0281 30.1628 29.8077C29.3838 30.5867 28.1198 30.5867 27.3407 29.8077L15.7471 18.2145L4.15341 29.8083C3.37439 30.5873 2.11035 30.5873 1.33133 29.8083C0.552316 29.0287 0.552316 27.7654 1.33133 26.9864L12.9256 15.3931L1.33133 3.79924C0.552316 3.01965 0.552316 1.75626 1.33133 0.977271C2.11035 0.197681 3.37439 0.197681 4.15341 0.977271L15.7477 12.5705L27.3407 0.977271Z" fill="#757575"/>
</svg>
