<svg width="58" height="59" viewBox="0 0 58 59" fill="none" xmlns="http://www.w3.org/2000/svg">
<path d="M42.6386 12.7403H16.6987C16.0278 12.7446 15.3824 12.4833 14.9035 12.0135C14.4246 11.5437 14.1511 10.9034 14.1426 10.2326V2.50785C14.1511 1.83701 14.4246 1.19679 14.9035 0.72695C15.3824 0.257111 16.0278 -0.00419626 16.6987 0.000117293H42.6306C43.3028 -0.00633938 43.9502 0.254002 44.4309 0.724071C44.9115 1.19414 45.1862 1.8356 45.1947 2.50785V10.1923C45.1976 10.5182 45.1356 10.8414 45.0124 11.1432C44.8892 11.445 44.7072 11.7193 44.4771 11.9501C44.2381 12.1969 43.9526 12.3938 43.637 12.5294C43.3214 12.6651 42.9821 12.7367 42.6386 12.7403ZM17.4002 9.47461H41.9291V3.26581H17.4002V9.47461Z" fill="white"/>
<path d="M26.3356 18.7802C25.9097 18.7799 25.501 18.948 25.1987 19.2479L20.2638 24.1827L17.0788 20.9573C16.9343 20.7885 16.7563 20.6514 16.5563 20.5546C16.3562 20.4578 16.1383 20.4034 15.9162 20.3948C15.6941 20.3862 15.4726 20.4237 15.2656 20.5047C15.0587 20.5858 14.8707 20.7088 14.7135 20.866C14.5564 21.0231 14.4334 21.2111 14.3524 21.418C14.2713 21.625 14.2338 21.8465 14.2424 22.0686C14.251 22.2906 14.3054 22.5086 14.4022 22.7086C14.499 22.9087 14.6361 23.0866 14.8049 23.2312L19.1269 27.5612C19.2768 27.7124 19.4552 27.8324 19.6517 27.9142C19.8483 27.9961 20.059 28.0383 20.2719 28.0383C20.4848 28.0383 20.6956 27.9961 20.8921 27.9142C21.0886 27.8324 21.267 27.7124 21.4169 27.5612L27.4806 21.4976C27.6315 21.3475 27.7513 21.1691 27.8329 20.9726C27.9146 20.7761 27.9565 20.5654 27.9563 20.3526C27.9544 20.1406 27.9107 19.931 27.8276 19.7359C27.7446 19.5408 27.6239 19.364 27.4725 19.2156C27.3217 19.0707 27.1434 18.9576 26.9482 18.8828C26.7529 18.808 26.5446 18.7731 26.3356 18.7802Z" fill="#164B4C"/>
<path d="M9.52317 8.94163C9.5253 8.71206 9.61797 8.49261 9.78106 8.33104C9.94415 8.16946 10.1644 8.07883 10.394 8.07884H17.4011V4.60352H10.394C9.2427 4.60351 8.13849 5.06031 7.32365 5.87363C6.50882 6.68695 6.04999 7.79035 6.04785 8.94163V19.0612H9.52317V8.94163Z" fill="white"/>
<path d="M48.9128 4.60352H41.8977V8.07884H48.9128C49.1417 8.07884 49.3611 8.16973 49.5229 8.33153C49.6847 8.49334 49.7756 8.7128 49.7756 8.94163V54.024C49.7756 54.2529 49.6847 54.4723 49.5229 54.6341C49.3611 54.7959 49.1417 54.8868 48.9128 54.8868H10.394C10.1644 54.8868 9.94415 54.7962 9.78106 54.6346C9.61797 54.4731 9.5253 54.2536 9.52317 54.024V36.9619H6.04785V54.024C6.04999 55.1753 6.50882 56.2787 7.32365 57.0921C8.13849 57.9054 9.2427 58.3622 10.394 58.3622H48.9128C50.0634 58.3622 51.1668 57.9051 51.9804 57.0916C52.7939 56.278 53.2509 55.1746 53.2509 54.024V8.94163C53.2509 7.79109 52.7939 6.68765 51.9804 5.8741C51.1668 5.06055 50.0634 4.60352 48.9128 4.60352Z" fill="white"/>
<path d="M9.52317 22.7793H6.04785V28.8268H9.52317V22.7793Z" fill="white"/>
<path d="M45.0432 18.9004H30.8193V22.1257H45.0432V18.9004Z" fill="#164B4C"/>
<path d="M45.0432 24.5371H30.8193V27.7625H45.0432V24.5371Z" fill="#164B4C"/>
</svg>
