<svg width="67" height="67" viewBox="0 0 67 67" fill="none" xmlns="http://www.w3.org/2000/svg">
<path d="M39.4456 24.4206L40.5237 25.3216L52.9457 13.7699L51.5441 12.5454C48.3154 9.74435 44.4874 7.72101 40.3543 6.6309L38.4676 6.16113L36.1572 22.8572L37.3586 23.3732C38.0805 23.6673 38.7784 24.0175 39.4456 24.4206ZM39.8537 20.7086L41.394 10.5123C43.6797 11.3656 45.8361 12.5318 47.8014 13.9778L40.2234 20.9088L40.0771 20.8318L39.8537 20.7086Z" fill="#07F2C7"/>
<path d="M55.8646 17.3039L54.6863 15.7637L42.095 27.1075L42.7804 28.3011C43.6424 29.8382 44.0834 31.5756 44.0588 33.3377C44.0621 34.8712 43.7381 36.3878 43.1087 37.7862C42.4792 39.1846 41.5586 40.4327 40.4085 41.447L39.3457 42.3557L47.2855 57.2113L48.9336 56.2178C51.9763 54.1467 54.5736 51.4875 56.5724 48.3969C58.5713 45.3063 59.9312 41.8468 60.5721 38.2224C61.213 34.598 61.1219 30.8819 60.3042 27.2933C59.4864 23.7046 57.9586 20.316 55.8108 17.327L55.8646 17.3039ZM47.4704 33.2607C47.455 31.4154 47.1027 29.5885 46.4307 27.8699L54.0163 20.8464C56.2927 24.5868 57.4945 28.8821 57.4896 33.2607C57.4965 36.8767 56.6912 40.448 55.133 43.7111C53.5748 46.9741 51.3036 49.8455 48.487 52.1131L43.6275 43.0488C44.8864 41.7546 45.8746 40.2223 46.5344 38.5417C47.1942 36.861 47.5124 35.0657 47.4704 33.2607Z" fill="white"/>
<path d="M27.1237 24.5511C28.6152 23.4965 30.357 22.8513 32.1756 22.6797L33.5233 22.5103L35.8337 5.79883H33.2846C26.6326 5.79879 20.2059 8.20914 15.1945 12.5835L13.793 13.808L26.1611 25.1518L27.1237 24.5511ZM18.9374 13.9697C22.7291 11.1615 27.245 9.49677 31.9522 9.17193L30.5507 19.3606C29.1386 19.6857 27.7781 20.204 26.5076 20.9008L18.9374 13.9697Z" fill="white"/>
<path d="M35.8414 43.9666C35.035 44.1654 34.2076 44.2662 33.3771 44.2669C30.5176 44.2669 27.7752 43.131 25.7533 41.1091C23.7313 39.0871 22.5954 36.3448 22.5954 33.4853C22.6199 31.7293 23.0578 30.0038 23.8738 28.4488L24.5515 27.2551L12.1526 15.7881L10.9513 17.3283C7.99443 21.4455 6.23119 26.2988 5.85588 31.3539C5.48056 36.4089 6.50764 41.4694 8.82409 45.9781C11.1405 50.4868 14.6565 54.2687 18.9846 56.9072C23.3127 59.5457 28.285 60.9385 33.3539 60.9322C36.7157 60.9143 40.0478 60.3016 43.196 59.1225L45.1521 58.5911L37.1583 43.6354L35.8414 43.9666ZM20.1619 27.8789C19.4906 29.5975 19.1409 31.4247 19.1299 33.2697C19.136 37.0403 20.6366 40.6547 23.3028 43.3209C25.969 45.987 29.5834 47.4876 33.3539 47.4937C34.001 47.481 34.6467 47.427 35.2869 47.332L40.0693 56.5195C37.8553 57.1808 35.5567 57.5154 33.2461 57.5129C26.8475 57.5048 20.7133 54.9593 16.1888 50.4348C11.6643 45.9103 9.11888 39.7761 9.11072 33.3775C9.09627 28.9938 10.2957 24.6917 12.5762 20.9479L20.1619 27.8789Z" fill="white"/>
</svg>
